<?xml version="1.0" encoding="iso-8859-1"?>
<!-- Generator: Adobe Illustrator 18.1.1, SVG Export Plug-In . SVG Version: 6.00 Build 0)  -->
<svg version="1.1" id="Capa_1" xmlns="http://www.w3.org/2000/svg" xmlns:xlink="http://www.w3.org/1999/xlink" x="0px" y="0px"
	 viewBox="0 0 60.309 60.309" style="enable-background:new 0 0 60.309 60.309;" xml:space="preserve">
<g>
	<g>
		<circle style="fill:#010002;" cx="30.553" cy="6.028" r="6.028"/>
		<path style="fill:#010002;" d="M49.939,1.791c-0.994-0.997-2.61-0.997-3.607,0L34.102,14.02c-0.974-0.634-2.134-1.007-3.382-1.007
			c-1.539,0-2.943,0.564-4.027,1.493L13.978,1.791c-0.996-0.997-2.612-0.997-3.609,0c-0.997,0.996-0.997,2.611,0,3.608
			l13.404,13.403c0.223,0.224,0.48,0.389,0.751,0.513v14.479c0,0.482,0.062,0.952,0.167,1.403l-8.175,20.368
			c-0.601,1.494,0.125,3.193,1.619,3.792c0.357,0.146,0.725,0.211,1.086,0.211c1.155,0,2.25-0.69,2.707-1.829l7.208-17.962
			c0.507,0.133,1.035,0.211,1.584,0.211c0.629,0,1.234-0.095,1.809-0.269l5.777,18.539c0.389,1.25,1.541,2.051,2.783,2.051
			c0.287,0,0.58-0.043,0.869-0.135c1.536-0.479,2.396-2.113,1.916-3.649l-6.726-21.578c-0.065-0.21-0.156-0.405-0.263-0.59
			c0.018-0.187,0.029-0.374,0.029-0.563V19.21c0-0.25-0.021-0.498-0.05-0.742l13.07-13.07C50.937,4.404,50.937,2.787,49.939,1.791z"
			/>
	</g>
</g>
<g>
</g>
<g>
</g>
<g>
</g>
<g>
</g>
<g>
</g>
<g>
</g>
<g>
</g>
<g>
</g>
<g>
</g>
<g>
</g>
<g>
</g>
<g>
</g>
<g>
</g>
<g>
</g>
<g>
</g>
</svg>
